<svg width="87" height="34" viewBox="0 0 87 34" fill="none" xmlns="http://www.w3.org/2000/svg">
<path d="M1 17C1 8.16344 8.16344 1 17 1H70C78.8366 1 86 8.16344 86 17C86 25.8366 78.8366 33 70 33H17C8.16345 33 1 25.8366 1 17Z" stroke="url(#paint0_linear_18370_49)" stroke-width="2"/>
<path d="M26.864 16.62C27.376 16.772 27.768 17.02 28.04 17.364C28.312 17.708 28.448 18.132 28.448 18.636C28.448 19.38 28.164 19.96 27.596 20.376C27.036 20.792 26.232 21 25.184 21H21.044V12.6H24.956C25.932 12.6 26.692 12.788 27.236 13.164C27.78 13.54 28.052 14.076 28.052 14.772C28.052 15.188 27.948 15.556 27.74 15.876C27.532 16.188 27.24 16.436 26.864 16.62ZM22.976 16.08H24.788C25.212 16.08 25.532 15.996 25.748 15.828C25.964 15.652 26.072 15.396 26.072 15.06C26.072 14.732 25.96 14.48 25.736 14.304C25.52 14.128 25.204 14.04 24.788 14.04H22.976V16.08ZM25.112 19.56C26.024 19.56 26.48 19.2 26.48 18.48C26.48 17.784 26.024 17.436 25.112 17.436H22.976V19.56H25.112ZM33.9934 21.144C33.1214 21.144 32.3334 20.956 31.6294 20.58C30.9334 20.204 30.3854 19.688 29.9854 19.032C29.5934 18.368 29.3974 17.624 29.3974 16.8C29.3974 15.976 29.5934 15.236 29.9854 14.58C30.3854 13.916 30.9334 13.396 31.6294 13.02C32.3334 12.644 33.1214 12.456 33.9934 12.456C34.8654 12.456 35.6494 12.644 36.3454 13.02C37.0414 13.396 37.5894 13.916 37.9894 14.58C38.3894 15.236 38.5894 15.976 38.5894 16.8C38.5894 17.624 38.3894 18.368 37.9894 19.032C37.5894 19.688 37.0414 20.204 36.3454 20.58C35.6494 20.956 34.8654 21.144 33.9934 21.144ZM33.9934 19.488C34.4894 19.488 34.9374 19.376 35.3374 19.152C35.7374 18.92 36.0494 18.6 36.2734 18.192C36.5054 17.784 36.6214 17.32 36.6214 16.8C36.6214 16.28 36.5054 15.816 36.2734 15.408C36.0494 15 35.7374 14.684 35.3374 14.46C34.9374 14.228 34.4894 14.112 33.9934 14.112C33.4974 14.112 33.0494 14.228 32.6494 14.46C32.2494 14.684 31.9334 15 31.7014 15.408C31.4774 15.816 31.3654 16.28 31.3654 16.8C31.3654 17.32 31.4774 17.784 31.7014 18.192C31.9334 18.6 32.2494 18.92 32.6494 19.152C33.0494 19.376 33.4974 19.488 33.9934 19.488ZM40.087 12.6H42.019V18.072L46.027 12.6H47.851V21H45.931V15.54L41.923 21H40.087V12.6ZM43.963 12.06C42.427 12.06 41.651 11.448 41.635 10.224H42.967C42.983 10.808 43.315 11.1 43.963 11.1C44.283 11.1 44.527 11.028 44.695 10.884C44.863 10.732 44.951 10.512 44.959 10.224H46.291C46.283 10.824 46.087 11.28 45.703 11.592C45.319 11.904 44.739 12.06 43.963 12.06ZM56.3624 14.184H53.6744V21H51.7544V14.184H49.0784V12.6H56.3624V14.184ZM57.5831 12.6H59.5151V18.072L63.5231 12.6H65.3471V21H63.4271V15.54L59.4191 21H57.5831V12.6Z" fill="#BC9CFF"/>
<defs>
<linearGradient id="paint0_linear_18370_49" x1="43.5" y1="0" x2="43.5" y2="34" gradientUnits="userSpaceOnUse">
<stop stop-color="#BC9CFF"/>
<stop offset="1" stop-color="#8BA4F9"/>
</linearGradient>
</defs>
</svg>
