<svg width="196" height="34" viewBox="0 0 196 34" fill="none" xmlns="http://www.w3.org/2000/svg">
<path d="M0 17C0 7.61116 7.61116 0 17 0H179C188.389 0 196 7.61116 196 17C196 26.3888 188.389 34 179 34H17C7.61116 34 0 26.3888 0 17Z" fill="url(#paint0_linear_18370_46)"/>
<path d="M24.82 16.62C25.308 16.788 25.688 17.052 25.96 17.412C26.24 17.764 26.38 18.176 26.38 18.648C26.38 19.16 26.212 19.604 25.876 19.98C25.54 20.356 25.084 20.644 24.508 20.844C23.94 21.044 23.316 21.144 22.636 21.144C22.06 21.144 21.484 21.072 20.908 20.928C20.34 20.784 19.8 20.564 19.288 20.268L19.888 18.876C20.256 19.1 20.66 19.272 21.1 19.392C21.548 19.504 21.984 19.56 22.408 19.56C22.984 19.56 23.46 19.456 23.836 19.248C24.22 19.04 24.412 18.748 24.412 18.372C24.412 18.06 24.28 17.824 24.016 17.664C23.76 17.504 23.408 17.424 22.96 17.424H20.908V15.96H22.816C23.208 15.96 23.512 15.88 23.728 15.72C23.952 15.56 24.064 15.34 24.064 15.06C24.064 14.732 23.904 14.476 23.584 14.292C23.272 14.108 22.868 14.016 22.372 14.016C22.004 14.016 21.624 14.068 21.232 14.172C20.84 14.268 20.468 14.416 20.116 14.616L19.528 13.104C20.416 12.648 21.376 12.42 22.408 12.42C23.064 12.42 23.668 12.516 24.22 12.708C24.772 12.9 25.212 13.18 25.54 13.548C25.868 13.916 26.032 14.344 26.032 14.832C26.032 15.232 25.924 15.588 25.708 15.9C25.492 16.212 25.196 16.452 24.82 16.62ZM33.607 19.2H29.707L28.963 21H26.971L30.715 12.6H32.635L36.391 21H34.351L33.607 19.2ZM32.995 17.724L31.663 14.508L30.331 17.724H32.995ZM41.1409 12.6C41.8849 12.6 42.5289 12.724 43.0729 12.972C43.6249 13.22 44.0489 13.572 44.3449 14.028C44.6409 14.484 44.7889 15.024 44.7889 15.648C44.7889 16.264 44.6409 16.804 44.3449 17.268C44.0489 17.724 43.6249 18.076 43.0729 18.324C42.5289 18.564 41.8849 18.684 41.1409 18.684H39.4489V21H37.5049V12.6H41.1409ZM41.0329 17.1C41.6169 17.1 42.0609 16.976 42.3649 16.728C42.6689 16.472 42.8209 16.112 42.8209 15.648C42.8209 15.176 42.6689 14.816 42.3649 14.568C42.0609 14.312 41.6169 14.184 41.0329 14.184H39.4489V17.1H41.0329ZM52.5753 19.44V21H46.0713V12.6H52.4193V14.16H48.0033V15.984H51.9033V17.496H48.0033V19.44H52.5753ZM60.0616 14.184H56.0656L56.0776 21H54.1456V12.6H60.0736L60.0616 14.184ZM61.2588 12.6H63.1908V18.072L67.1988 12.6H69.0228V21H67.1028V15.54L63.0948 21H61.2588V12.6ZM75.0863 21.144C74.2303 21.144 73.4543 20.96 72.7583 20.592C72.0703 20.216 71.5263 19.7 71.1263 19.044C70.7343 18.38 70.5383 17.632 70.5383 16.8C70.5383 15.968 70.7343 15.224 71.1263 14.568C71.5263 13.904 72.0703 13.388 72.7583 13.02C73.4543 12.644 74.2343 12.456 75.0983 12.456C75.8263 12.456 76.4823 12.584 77.0663 12.84C77.6583 13.096 78.1543 13.464 78.5543 13.944L77.3063 15.096C76.7383 14.44 76.0343 14.112 75.1943 14.112C74.6743 14.112 74.2103 14.228 73.8023 14.46C73.3943 14.684 73.0743 15 72.8423 15.408C72.6183 15.816 72.5063 16.28 72.5063 16.8C72.5063 17.32 72.6183 17.784 72.8423 18.192C73.0743 18.6 73.3943 18.92 73.8023 19.152C74.2103 19.376 74.6743 19.488 75.1943 19.488C76.0343 19.488 76.7383 19.156 77.3063 18.492L78.5543 19.644C78.1543 20.132 77.6583 20.504 77.0663 20.76C76.4743 21.016 75.8143 21.144 75.0863 21.144ZM86.1593 14.184H83.4713V21H81.5513V14.184H78.8753V12.6H86.1593V14.184ZM91.0159 12.6C91.7599 12.6 92.4039 12.724 92.9479 12.972C93.4999 13.22 93.9239 13.572 94.2199 14.028C94.5159 14.484 94.6639 15.024 94.6639 15.648C94.6639 16.264 94.5159 16.804 94.2199 17.268C93.9239 17.724 93.4999 18.076 92.9479 18.324C92.4039 18.564 91.7599 18.684 91.0159 18.684H89.3239V21H87.3799V12.6H91.0159ZM90.9079 17.1C91.4919 17.1 91.9359 16.976 92.2399 16.728C92.5439 16.472 92.6959 16.112 92.6959 15.648C92.6959 15.176 92.5439 14.816 92.2399 14.568C91.9359 14.312 91.4919 14.184 90.9079 14.184H89.3239V17.1H90.9079ZM95.9463 12.6H97.8783V18.072L101.886 12.6H103.71V21H101.79V15.54L97.7823 21H95.9463V12.6ZM109.438 12.6C110.182 12.6 110.826 12.724 111.37 12.972C111.922 13.22 112.346 13.572 112.642 14.028C112.938 14.484 113.086 15.024 113.086 15.648C113.086 16.264 112.938 16.804 112.642 17.268C112.346 17.724 111.922 18.076 111.37 18.324C110.826 18.564 110.182 18.684 109.438 18.684H107.746V21H105.802V12.6H109.438ZM109.33 17.1C109.914 17.1 110.358 16.976 110.662 16.728C110.966 16.472 111.118 16.112 111.118 15.648C111.118 15.176 110.966 14.816 110.662 14.568C110.358 14.312 109.914 14.184 109.33 14.184H107.746V17.1H109.33ZM118.493 21.144C117.621 21.144 116.833 20.956 116.129 20.58C115.433 20.204 114.885 19.688 114.485 19.032C114.093 18.368 113.897 17.624 113.897 16.8C113.897 15.976 114.093 15.236 114.485 14.58C114.885 13.916 115.433 13.396 116.129 13.02C116.833 12.644 117.621 12.456 118.493 12.456C119.365 12.456 120.149 12.644 120.845 13.02C121.541 13.396 122.089 13.916 122.489 14.58C122.889 15.236 123.089 15.976 123.089 16.8C123.089 17.624 122.889 18.368 122.489 19.032C122.089 19.688 121.541 20.204 120.845 20.58C120.149 20.956 119.365 21.144 118.493 21.144ZM118.493 19.488C118.989 19.488 119.437 19.376 119.837 19.152C120.237 18.92 120.549 18.6 120.773 18.192C121.005 17.784 121.121 17.32 121.121 16.8C121.121 16.28 121.005 15.816 120.773 15.408C120.549 15 120.237 14.684 119.837 14.46C119.437 14.228 118.989 14.112 118.493 14.112C117.997 14.112 117.549 14.228 117.149 14.46C116.749 14.684 116.433 15 116.201 15.408C115.977 15.816 115.865 16.28 115.865 16.8C115.865 17.32 115.977 17.784 116.201 18.192C116.433 18.6 116.749 18.92 117.149 19.152C117.549 19.376 117.997 19.488 118.493 19.488ZM130.407 16.62C130.919 16.772 131.311 17.02 131.583 17.364C131.855 17.708 131.991 18.132 131.991 18.636C131.991 19.38 131.707 19.96 131.139 20.376C130.579 20.792 129.775 21 128.727 21H124.587V12.6H128.499C129.475 12.6 130.235 12.788 130.779 13.164C131.323 13.54 131.595 14.076 131.595 14.772C131.595 15.188 131.491 15.556 131.283 15.876C131.075 16.188 130.783 16.436 130.407 16.62ZM126.519 16.08H128.331C128.755 16.08 129.075 15.996 129.291 15.828C129.507 15.652 129.615 15.396 129.615 15.06C129.615 14.732 129.503 14.48 129.279 14.304C129.063 14.128 128.747 14.04 128.331 14.04H126.519V16.08ZM128.655 19.56C129.567 19.56 130.023 19.2 130.023 18.48C130.023 17.784 129.567 17.436 128.655 17.436H126.519V19.56H128.655ZM139.216 19.2H135.316L134.572 21H132.58L136.324 12.6H138.244L142 21H139.96L139.216 19.2ZM138.604 17.724L137.272 14.508L135.94 17.724H138.604ZM149.112 14.184H146.424V21H144.504V14.184H141.828V12.6H149.112V14.184ZM154.401 15.36C155.425 15.36 156.209 15.588 156.753 16.044C157.305 16.5 157.581 17.176 157.581 18.072C157.581 19.024 157.277 19.752 156.669 20.256C156.069 20.752 155.221 21 154.125 21H150.333V12.6H152.265V15.36H154.401ZM154.017 19.56C154.521 19.56 154.913 19.436 155.193 19.188C155.481 18.94 155.625 18.58 155.625 18.108C155.625 17.236 155.089 16.8 154.017 16.8H152.265V19.56H154.017ZM162.954 21.144C162.098 21.144 161.322 20.96 160.626 20.592C159.938 20.216 159.394 19.7 158.994 19.044C158.602 18.38 158.406 17.632 158.406 16.8C158.406 15.968 158.602 15.224 158.994 14.568C159.394 13.904 159.938 13.388 160.626 13.02C161.322 12.644 162.102 12.456 162.966 12.456C163.694 12.456 164.35 12.584 164.934 12.84C165.526 13.096 166.022 13.464 166.422 13.944L165.174 15.096C164.606 14.44 163.902 14.112 163.062 14.112C162.542 14.112 162.078 14.228 161.67 14.46C161.262 14.684 160.942 15 160.71 15.408C160.486 15.816 160.374 16.28 160.374 16.8C160.374 17.32 160.486 17.784 160.71 18.192C160.942 18.6 161.262 18.92 161.67 19.152C162.078 19.376 162.542 19.488 163.062 19.488C163.902 19.488 164.606 19.156 165.174 18.492L166.422 19.644C166.022 20.132 165.526 20.504 164.934 20.76C164.342 21.016 163.682 21.144 162.954 21.144ZM174.232 12.6V21H172.312V18.768H170.536L169.048 21H166.996L168.748 18.468C168.18 18.236 167.744 17.888 167.44 17.424C167.136 16.952 166.984 16.388 166.984 15.732C166.984 15.084 167.132 14.528 167.428 14.064C167.724 13.592 168.144 13.232 168.688 12.984C169.232 12.728 169.872 12.6 170.608 12.6H174.232ZM170.656 14.184C170.104 14.184 169.68 14.312 169.384 14.568C169.096 14.824 168.952 15.204 168.952 15.708C168.952 16.196 169.092 16.572 169.372 16.836C169.652 17.1 170.064 17.232 170.608 17.232H172.312V14.184H170.656Z" fill="white"/>
<defs>
<linearGradient id="paint0_linear_18370_46" x1="98" y1="0" x2="98" y2="34" gradientUnits="userSpaceOnUse">
<stop stop-color="#BC9CFF"/>
<stop offset="1" stop-color="#8BA4F9"/>
</linearGradient>
</defs>
</svg>
